<?xml version="1.0" encoding="utf-8"?>
<!-- Generator: Adobe Illustrator 23.0.0, SVG Export Plug-In . SVG Version: 6.00 Build 0)  -->
<svg version="1.1" id="Capa_1" xmlns="http://www.w3.org/2000/svg" xmlns:xlink="http://www.w3.org/1999/xlink" x="0px" y="0px"
	 viewBox="0 0 25 25" style="enable-background:new 0 0 25 25;" xml:space="preserve">
<style type="text/css">
	.st0{fill:none;stroke:#555555;stroke-width:1.3;stroke-miterlimit:10;}
	.st1{fill:#555555;}
	.st2{fill:none;stroke:#555555;stroke-width:1.3;stroke-linecap:round;stroke-linejoin:round;stroke-miterlimit:10;}
</style>
<circle class="st0" cx="12.5" cy="12.5" r="9.9"/>
<g>
	<g>
		<path class="st1" d="M13.6,15.9c-4.8,0-1.4,0-2.4,0l0,0l0,0l0,0l0,0l0,0l0,0v-0.2v-0.3v-0.7l-0.2-1.4l-0.2-2.6l-0.5-5.3h4.3
			l-0.5,5.3l-0.2,2.6l-0.2,1.4v0.7v0.3L13.6,15.9L13.6,15.9L13.6,15.9L13.6,15.9L13.6,15.9L13.6,15.9L13.6,15.9c-1,0,2.4,0-2.4,0
			H13.6z"/>
	</g>
	<rect x="11.4" y="17.4" class="st1" width="2.4" height="2.1"/>
</g>
<line class="st2" x1="19.5" y1="19.5" x2="23.4" y2="23"/>
</svg>
