<svg id="Capa_1" data-name="Capa 1" xmlns="http://www.w3.org/2000/svg" viewBox="0 0 499.59 500.5"><defs><style>.cls-1{fill:#3ba2dc;}.cls-2{fill:#d17731;}</style></defs><title>logosigess</title><path class="cls-1" d="M59,438a126.74,126.74,0,0,1,13.28,4.3,42.34,42.34,0,0,1,10.5,5.78,24.59,24.59,0,0,1,6.9,8.15,24,24,0,0,1,2.48,11.26V468a29,29,0,0,1-2.93,13,30.24,30.24,0,0,1-8.1,10.15A37.63,37.63,0,0,1,69,497.67,48.5,48.5,0,0,1,53.77,500a57.24,57.24,0,0,1-14.63-1.84,59.42,59.42,0,0,1-12.68-4.85,49.84,49.84,0,0,1-10-6.84,30.14,30.14,0,0,1-6.53-8l17.55-11a66.23,66.23,0,0,0,5.7,5.56,34.12,34.12,0,0,0,6,4.15,27.9,27.9,0,0,0,6.9,2.59,35.81,35.81,0,0,0,8.25.89,29,29,0,0,0,5.78-.59,18.4,18.4,0,0,0,5.33-1.93,12.2,12.2,0,0,0,3.9-3.34,8.08,8.08,0,0,0,1.5-5,8.26,8.26,0,0,0-1.05-4,12,12,0,0,0-3.6-3.79,31.41,31.41,0,0,0-6.9-3.56,89.48,89.48,0,0,0-11-3.34,117.61,117.61,0,0,1-14.55-4.38,42.25,42.25,0,0,1-11-5.94,23.72,23.72,0,0,1-6.9-8.38,26,26,0,0,1-2.4-11.58,30.3,30.3,0,0,1,2.78-13.13,27.85,27.85,0,0,1,7.73-9.87,35.66,35.66,0,0,1,11.63-6.16A46.49,46.49,0,0,1,50,393.58a54.14,54.14,0,0,1,14.4,1.78A55.55,55.55,0,0,1,76,399.88a44.6,44.6,0,0,1,8.93,6.22,55.73,55.73,0,0,1,6.38,6.74L74,423.81a42.87,42.87,0,0,0-12.23-8.52,30.64,30.64,0,0,0-12.08-2.45,20.45,20.45,0,0,0-6.68,1,15.82,15.82,0,0,0-4.58,2.37,10.43,10.43,0,0,0-2.78,3.18,7.08,7.08,0,0,0-1,3.41,8.4,8.4,0,0,0,1.57,5.11,14.89,14.89,0,0,0,4.65,3.93,40.09,40.09,0,0,0,7.65,3.26Q53.17,436.55,59,438Zm64.07-20.89v82.67H101.18V394.92Zm114.79,25.18q.15,2.22.15,4.45a54,54,0,0,1-4,20.67,52.56,52.56,0,0,1-11,16.89,51.06,51.06,0,0,1-16.58,11.34,51.64,51.64,0,0,1-20.71,4.15,53.24,53.24,0,0,1-20.93-4.15,53.83,53.83,0,0,1-17.11-11.34,53.08,53.08,0,0,1-11.48-16.89,53,53,0,0,1,0-41.34,53.13,53.13,0,0,1,11.48-16.89,53.92,53.92,0,0,1,17.11-11.34,53.29,53.29,0,0,1,20.93-4.15,52,52,0,0,1,26.48,6.89,54.94,54.94,0,0,1,19.13,18.15l-17.56,11.11a32.48,32.48,0,0,0-11.48-12.82,29.85,29.85,0,0,0-16.58-4.81A29.37,29.37,0,0,0,173.21,415,32.92,32.92,0,0,0,163,422.4a36,36,0,0,0,0,48.75,32.88,32.88,0,0,0,10.2,7.41,30.29,30.29,0,0,0,22.81,1,27.48,27.48,0,0,0,8.55-5,34.68,34.68,0,0,0,6.53-7.63,33.08,33.08,0,0,0,4.13-9.71H197.05l-19.94-19.26h60.32Q237.72,440.11,237.88,442.33Zm79.52-47.41.15,17.65H268.18L268,483H317.4v17.5H247V394.92Zm-12.45,63.5H290.45l-18.67-19.61h33.16Z" transform="translate(-0.59 0)"/><path class="cls-1" d="M467.25,212.41l-35.37-35.09A77.54,77.54,0,1,0,296,130.26a152.8,152.8,0,0,1,12.33,38.49A155.1,155.1,0,1,1,45.67,87.12l36.3,36a104.57,104.57,0,1,0,178.1,60,125.87,125.87,0,0,1-11.43-35.71,127.78,127.78,0,0,1,7.92-68.84,126.69,126.69,0,1,1,210.69,133.8Z" transform="translate(-0.59 0)"/><path class="cls-2" d="M368.42,438a126.74,126.74,0,0,1,13.28,4.3,42.34,42.34,0,0,1,10.5,5.78,24.59,24.59,0,0,1,6.9,8.15,24,24,0,0,1,2.48,11.26V468a29,29,0,0,1-2.93,13,30.24,30.24,0,0,1-8.1,10.15,37.63,37.63,0,0,1-12.15,6.52,48.5,48.5,0,0,1-15.23,2.3,57.24,57.24,0,0,1-14.63-1.84,59.42,59.42,0,0,1-12.68-4.85,49.84,49.84,0,0,1-10-6.84,30.14,30.14,0,0,1-6.53-8l17.55-11a66.23,66.23,0,0,0,5.7,5.56,34.12,34.12,0,0,0,6,4.15,27.9,27.9,0,0,0,6.9,2.59,35.81,35.81,0,0,0,8.25.89,29,29,0,0,0,5.78-.59,18.4,18.4,0,0,0,5.33-1.93,12.2,12.2,0,0,0,3.9-3.34,8.08,8.08,0,0,0,1.5-5,8.26,8.26,0,0,0-1.05-4,12,12,0,0,0-3.6-3.79,31.41,31.41,0,0,0-6.9-3.56,89.48,89.48,0,0,0-11-3.34,117.61,117.61,0,0,1-14.55-4.38,42.25,42.25,0,0,1-11-5.94,23.72,23.72,0,0,1-6.9-8.38A26,26,0,0,1,323,424.9a30.3,30.3,0,0,1,2.78-13.13,27.85,27.85,0,0,1,7.73-9.87,35.66,35.66,0,0,1,11.63-6.16,46.49,46.49,0,0,1,14.33-2.15,54.14,54.14,0,0,1,14.4,1.78,55.55,55.55,0,0,1,11.55,4.52,44.6,44.6,0,0,1,8.93,6.22,55.73,55.73,0,0,1,6.38,6.74l-17.25,11a42.87,42.87,0,0,0-12.23-8.52,30.64,30.64,0,0,0-12.08-2.45,20.45,20.45,0,0,0-6.68,1,15.82,15.82,0,0,0-4.58,2.37,10.43,10.43,0,0,0-2.78,3.18,7.08,7.08,0,0,0-1,3.41,8.4,8.4,0,0,0,1.57,5.11,14.89,14.89,0,0,0,4.65,3.93,40.09,40.09,0,0,0,7.65,3.26Q362.56,436.55,368.42,438Z" transform="translate(-0.59 0)"/><path class="cls-2" d="M467.14,476.28,480.43,491l-.16.14a37.63,37.63,0,0,1-12.15,6.52,48.5,48.5,0,0,1-15.23,2.3,57.24,57.24,0,0,1-14.63-1.84,59.42,59.42,0,0,1-12.68-4.85,49.84,49.84,0,0,1-10-6.84,30.14,30.14,0,0,1-6.53-8l17.55-11a66.23,66.23,0,0,0,5.7,5.56,34.12,34.12,0,0,0,6,4.15,27.9,27.9,0,0,0,6.9,2.59,35.81,35.81,0,0,0,8.25.89,29,29,0,0,0,5.78-.59,18.4,18.4,0,0,0,5.33-1.93A12.72,12.72,0,0,0,467.14,476.28ZM491.3,468v-.45a24,24,0,0,0-2.48-11.26,24.59,24.59,0,0,0-6.9-8.15,42.34,42.34,0,0,0-10.5-5.78,126.74,126.74,0,0,0-13.28-4.3q-5.85-1.48-10.43-3a40.09,40.09,0,0,1-7.65-3.26,14.89,14.89,0,0,1-4.65-3.93,8.4,8.4,0,0,1-1.57-5.11,7.08,7.08,0,0,1,1-3.41,10.43,10.43,0,0,1,2.78-3.18,15.82,15.82,0,0,1,4.58-2.37,20.45,20.45,0,0,1,6.68-1,30.64,30.64,0,0,1,12.08,2.45,42.87,42.87,0,0,1,12.23,8.52l17.25-11A55.73,55.73,0,0,0,484,406.1a44.6,44.6,0,0,0-8.93-6.22,55.55,55.55,0,0,0-11.55-4.52,54.14,54.14,0,0,0-14.4-1.78,46.49,46.49,0,0,0-14.33,2.15,35.66,35.66,0,0,0-11.63,6.16,27.85,27.85,0,0,0-7.73,9.87,30.3,30.3,0,0,0-2.78,13.13,26,26,0,0,0,2.4,11.58,23.72,23.72,0,0,0,6.9,8.38,42.25,42.25,0,0,0,11,5.94,117.61,117.61,0,0,0,14.55,4.38,89.48,89.48,0,0,1,11,3.34,31.41,31.41,0,0,1,6.9,3.56,12,12,0,0,1,3.6,3.79,8.57,8.57,0,0,1-.26,8.66l21.78.6A30.82,30.82,0,0,0,491.3,468Z" transform="translate(-0.59 0)"/><polygon class="cls-2" points="428.11 189.17 405.55 226.65 453.33 217.59 428.11 189.17"/><polygon class="cls-2" points="385.17 212.59 389.55 242.94 356.15 230.28 385.17 212.59"/><polygon class="cls-2" points="340.83 214.29 334.4 232.12 317.04 215.64 340.83 214.29"/><polygon class="cls-2" points="118.86 93.22 70.26 100.34 104.91 53.87 118.86 93.22"/><polygon class="cls-2" points="173.28 86.17 178.68 52.05 138.3 69.34 173.28 86.17"/><polygon class="cls-2" points="216.9 95.71 228.18 77 199.53 76.2 216.9 95.71"/></svg>