<?xml version="1.0" encoding="utf-8"?>
<!-- Generator: Adobe Illustrator 23.0.0, SVG Export Plug-In . SVG Version: 6.00 Build 0)  -->
<svg version="1.1" id="Capa_1" xmlns="http://www.w3.org/2000/svg" xmlns:xlink="http://www.w3.org/1999/xlink" x="0px" y="0px"
	 viewBox="0 0 25 25" style="enable-background:new 0 0 25 25;" xml:space="preserve">
<style type="text/css">
	.st0{fill:url(#SVGID_1_);}
	.st1{fill:#3BA2DC;}
</style>
<radialGradient id="SVGID_1_" cx="12.8613" cy="77.6172" r="4.0629" gradientTransform="matrix(1 0 0 0.5212 0 -17.572)" gradientUnits="userSpaceOnUse">
	<stop  offset="0" style="stop-color:#000000;stop-opacity:0.8"/>
	<stop  offset="1" style="stop-color:#000000;stop-opacity:0"/>
</radialGradient>
<ellipse class="st0" cx="12.86" cy="22.88" rx="4.06" ry="2.12"/>
<path class="st1" d="M22.9,14.54c0-0.06,0.01-0.11,0-0.17c-0.02-1.53-0.8-3.59-4.32-4.8c-0.12-0.21-0.17-0.43-0.15-0.7
	c0.2-1.99,0.61-3.24,0.67-3.43c0.19-0.39,0.29-0.81,0.28-1.24c-0.04-2.27-2.98-4.01-6.7-3.95C8.97,0.31,6.08,2.13,6.11,4.41
	c0.01,0.33,0.08,0.64,0.19,0.94c0.01,0.04,0.03,0.08,0.05,0.13c0.07,0.16,0.16,0.32,0.26,0.47C6.9,6.5,7.34,7.66,7.41,9.34
	c0,0.09,0,0.17-0.01,0.24c-2.42,0.87-3.98,2.27-4.43,3.97c-0.03,0.09-0.05,0.19-0.07,0.29c0,0,0,0,0,0
	c-0.05,0.24-0.07,0.5-0.07,0.78c0,0.02,0,0.04,0,0.06c0.05,3.03,3.74,5.4,8.65,5.74c-0.01,0.05-0.02,0.1-0.02,0.16l0.03,1.8
	c0,0.27,0.15,0.9,1.37,0.88c0.35-0.01,0.6-0.06,0.8-0.14c0.32-0.08,0.55-0.37,0.55-0.72l-0.03-1.8c0-0.07-0.01-0.13-0.03-0.19
	c4.69-0.38,8.27-2.59,8.72-5.38c0.03-0.08,0.05-0.17,0.05-0.27C22.91,14.67,22.9,14.61,22.9,14.54z M12.71,1.71
	c3.05-0.05,5.2,1.29,5.22,2.51c0.02,1.23-2.09,2.63-5.14,2.67c-2.41,0.04-4.25-0.79-4.93-1.74C7.78,5,7.71,4.88,7.67,4.81
	C7.61,4.67,7.58,4.52,7.57,4.38C7.56,3.16,9.66,1.76,12.71,1.71z M12.93,19c-4.65,0.07-8.61-1.92-8.65-4.34c0,0,0-0.01,0-0.01
	c0-0.12,0.01-0.24,0.02-0.35c0.01-0.05,0.01-0.1,0.02-0.15c0.17-0.88,0.91-1.29,2.03-1.84c1.16-0.56,2.59-1.27,2.51-3.04
	c-0.03-0.64-0.1-1.21-0.2-1.71c1.14,0.52,2.57,0.83,4.15,0.8c1.69-0.03,3.2-0.42,4.35-1.05c-0.07,0.42-0.14,0.89-0.19,1.41
	c-0.18,1.76,1.16,2.6,2.34,3.34c1.27,0.8,2.05,1.38,2.12,2.54C21.25,16.93,17.45,18.93,12.93,19z"/>
</svg>
