<?xml version="1.0" encoding="utf-8"?>
<!-- Generator: Adobe Illustrator 23.0.0, SVG Export Plug-In . SVG Version: 6.00 Build 0)  -->
<svg version="1.1" id="Capa_1" xmlns="http://www.w3.org/2000/svg" xmlns:xlink="http://www.w3.org/1999/xlink" x="0px" y="0px"
	 viewBox="0 0 25 25" style="enable-background:new 0 0 25 25;" xml:space="preserve">
<style type="text/css">
	.st0{fill:#3BA2DC;}
</style>
<path class="st0" d="M23.11,15.45c0-0.06,0.01-0.12,0-0.18c-0.02-1.62-0.85-3.8-4.58-5.09c-0.12-0.22-0.18-0.46-0.15-0.74
	c0.21-2.11,0.64-3.43,0.71-3.63c0.2-0.41,0.31-0.85,0.3-1.31c-0.04-2.41-3.15-4.25-7.09-4.19c-3.94,0.06-7,1.99-6.96,4.4
	C5.34,5.07,5.42,5.4,5.54,5.72C5.56,5.76,5.58,5.81,5.6,5.85c0.08,0.17,0.17,0.34,0.28,0.5c0.29,0.6,0.76,1.82,0.84,3.6
	c0,0.09,0,0.18-0.01,0.26c-2.57,0.92-4.21,2.41-4.69,4.21c-0.03,0.1-0.05,0.2-0.07,0.3c0,0,0,0,0,0c-0.05,0.25-0.08,0.53-0.07,0.83
	c0,0.02,0,0.04,0,0.06c0.05,3.21,3.96,5.72,9.16,6.08C11,21.73,11,21.79,11,21.85l0.03,1.9c0,0.29,0.15,0.95,1.45,0.93
	c0.37-0.01,0.64-0.06,0.84-0.15c0.34-0.09,0.59-0.39,0.58-0.76l-0.03-1.9c0-0.07-0.02-0.14-0.03-0.21c4.97-0.41,8.76-2.74,9.23-5.7
	c0.04-0.09,0.06-0.19,0.06-0.29C23.12,15.6,23.12,15.53,23.11,15.45z M12.33,1.87c3.23-0.05,5.5,1.36,5.52,2.66
	c0.02,1.3-2.21,2.78-5.44,2.83C9.86,7.4,7.91,6.53,7.19,5.52C7.11,5.36,7.03,5.23,6.98,5.15C6.92,5,6.89,4.85,6.89,4.7
	C6.87,3.4,9.09,1.92,12.33,1.87z M12.56,20.18c-4.92,0.08-9.12-2.03-9.16-4.6c0,0,0-0.01,0-0.01c0-0.13,0.01-0.25,0.02-0.37
	c0.01-0.05,0.01-0.1,0.02-0.16c0.18-0.93,0.97-1.37,2.15-1.94c1.22-0.6,2.75-1.34,2.66-3.22C8.23,9.2,8.15,8.6,8.04,8.06
	c1.2,0.56,2.72,0.87,4.39,0.85c1.79-0.03,3.39-0.44,4.61-1.11c-0.07,0.45-0.14,0.94-0.2,1.49c-0.19,1.87,1.23,2.76,2.48,3.54
	c1.34,0.84,2.17,1.47,2.24,2.69C21.37,17.99,17.34,20.1,12.56,20.18z"/>
</svg>
