<?xml version="1.0" encoding="utf-8"?>
<!-- Generator: Adobe Illustrator 23.0.0, SVG Export Plug-In . SVG Version: 6.00 Build 0)  -->
<svg version="1.1" id="Capa_1" xmlns="http://www.w3.org/2000/svg" xmlns:xlink="http://www.w3.org/1999/xlink" x="0px" y="0px"
	 viewBox="0 0 25 25" style="enable-background:new 0 0 25 25;" xml:space="preserve">
<style type="text/css">
	.st0{fill:#555555;}
</style>
<path class="st0" d="M15.61,21.89c1.12-1.49,1.07-3.56,1.02-5.38c-0.04-1.6-0.08-3.11,0.66-3.72c1.88-1.54,6.75-2.69,6.8-2.7
	c0.4-0.09,0.65-0.5,0.56-0.9C24.61,9,24.5,8.84,24.35,8.74c-0.03-0.04-0.06-0.08-0.09-0.11L16.2,0.57
	c-0.01-0.01-0.03-0.02-0.04-0.03c-0.02-0.02-0.04-0.04-0.06-0.05c-0.02-0.02-0.04-0.03-0.07-0.04c-0.02-0.01-0.04-0.02-0.06-0.03
	c-0.03-0.01-0.06-0.02-0.08-0.03c-0.02,0-0.03-0.01-0.05-0.02c0,0-0.01,0-0.01,0c-0.03-0.01-0.06-0.01-0.09-0.01
	c-0.02,0-0.04-0.01-0.06-0.01c-0.02,0-0.05,0-0.07,0.01c-0.02,0-0.05,0-0.07,0.01c-0.02,0-0.05,0.01-0.07,0.02
	c-0.02,0.01-0.05,0.01-0.07,0.02c-0.02,0.01-0.04,0.02-0.07,0.03c-0.02,0.01-0.04,0.02-0.06,0.03c-0.02,0.01-0.03,0.03-0.05,0.04
	c-0.02,0.02-0.05,0.03-0.07,0.05c0,0-0.01,0.01-0.01,0.01c-0.01,0.01-0.02,0.03-0.03,0.04c-0.02,0.02-0.04,0.04-0.05,0.07
	c-0.01,0.02-0.02,0.04-0.04,0.06C15.01,0.76,15,0.78,14.99,0.8c-0.01,0.03-0.02,0.05-0.03,0.08c-0.01,0.02-0.01,0.03-0.02,0.05
	c-0.01,0.05-1.16,4.92-2.7,6.8c-0.61,0.74-2.12,0.71-3.72,0.67C6.71,8.35,4.67,8.3,3.18,9.39c0,0-0.01,0.01-0.01,0.01
	C3.16,9.41,3.15,9.41,3.14,9.42C3.12,9.43,3.11,9.44,3.1,9.46C3.09,9.47,3.07,9.48,3.06,9.49C3.05,9.49,3.05,9.5,3.04,9.51
	C3.03,9.53,3.01,9.55,2.99,9.57C2.98,9.59,2.96,9.61,2.95,9.63C2.94,9.65,2.93,9.67,2.92,9.69C2.91,9.71,2.9,9.73,2.89,9.76
	C2.88,9.78,2.87,9.8,2.87,9.82C2.86,9.85,2.86,9.87,2.85,9.9c0,0.02,0,0.05-0.01,0.07c0,0.02,0,0.05,0,0.07c0,0.02,0,0.05,0.01,0.07
	c0,0.02,0.01,0.05,0.01,0.07c0.01,0.02,0.01,0.04,0.02,0.07c0.01,0.02,0.02,0.05,0.03,0.07c0.01,0.02,0.02,0.04,0.03,0.06
	c0.01,0.02,0.03,0.05,0.04,0.07c0,0.01,0.01,0.01,0.01,0.02c0.02,0.03,0.04,0.05,0.07,0.08c0,0,0,0,0,0l4.75,4.75l-5.84,5.84
	l-1.76,3.61l3.61-1.76l5.84-5.84l4.53,4.53c0.05,0.05,0.11,0.09,0.17,0.12c0.03,0.06,0.07,0.12,0.12,0.17
	c0.02,0.02,0.05,0.05,0.08,0.07C14.89,22.29,15.36,22.22,15.61,21.89z M8.48,9.9c1.89,0.05,3.84,0.1,4.92-1.21
	c1.24-1.51,2.19-4.44,2.67-6.13l6.41,6.41c-1.69,0.48-4.62,1.43-6.13,2.67c-1.31,1.08-1.26,3.03-1.21,4.92
	c0.03,1.29,0.06,2.62-0.31,3.65l-10-10C5.86,9.83,7.19,9.86,8.48,9.9z"/>
</svg>
